<svg id="visual" viewBox="0 0 900 600" width="900" height="600" xmlns="http://www.w3.org/2000/svg" xmlns:xlink="http://www.w3.org/1999/xlink" version="1.1"><path d="M0 213L25 198.3C50 183.7 100 154.3 150 159.7C200 165 250 205 300 206.2C350 207.3 400 169.7 450 156.7C500 143.7 550 155.3 600 168.5C650 181.7 700 196.3 750 193.7C800 191 850 171 875 161L900 151L900 0L875 0C850 0 800 0 750 0C700 0 650 0 600 0C550 0 500 0 450 0C400 0 350 0 300 0C250 0 200 0 150 0C100 0 50 0 25 0L0 0Z" fill="#7f4396" stroke-linecap="round" stroke-linejoin="miter"></path></svg>